<svg width="1497" height="735" viewBox="0 0 1497 735" fill="none" xmlns="http://www.w3.org/2000/svg">
<g clip-path="url(#clip0_152_175)">
<g filter="url(#filter0_d_152_175)">
<path d="M0 0H1497V630C1497 685.228 1452.23 730 1397 730H100C44.7715 730 0 685.228 0 630V0Z" fill="#FFB4B4"/>
</g>
<path d="M297.866 407.444C298.008 406.598 298.094 405.745 298.124 404.888C298.136 400.503 296.691 396.238 294.017 392.763C291.342 389.287 287.589 386.799 283.347 385.688C279.105 384.577 274.614 384.906 270.579 386.624C266.545 388.342 263.195 391.352 261.056 395.18C259.779 394.692 258.429 394.419 257.063 394.373C255.409 394.373 253.772 394.698 252.244 395.331C250.716 395.963 249.327 396.89 248.158 398.06C246.988 399.229 246.061 400.617 245.428 402.145C244.795 403.673 244.469 405.31 244.469 406.964C244.469 407.036 244.508 407.096 244.511 407.165C241.296 407.399 238.299 408.873 236.151 411.276C234.004 413.68 232.875 416.824 233.004 420.045C233.133 423.265 234.508 426.309 236.84 428.534C239.172 430.758 242.278 431.989 245.501 431.966H295.499C298.814 431.966 301.994 430.649 304.338 428.304C306.683 425.96 308 422.78 308 419.465C307.974 416.595 306.948 413.824 305.098 411.629C303.248 409.435 300.69 407.954 297.866 407.444Z" fill="white"/>
<path d="M922.866 555.444C923.008 554.598 923.094 553.745 923.124 552.888C923.136 548.503 921.691 544.238 919.017 540.763C916.342 537.287 912.589 534.799 908.347 533.688C904.105 532.577 899.614 532.906 895.579 534.624C891.545 536.342 888.195 539.352 886.056 543.18C884.779 542.692 883.429 542.419 882.063 542.373C880.409 542.373 878.772 542.698 877.244 543.331C875.716 543.963 874.327 544.89 873.158 546.06C871.988 547.229 871.061 548.617 870.428 550.145C869.795 551.673 869.469 553.31 869.469 554.964C869.469 555.036 869.508 555.096 869.511 555.165C866.296 555.399 863.299 556.873 861.151 559.276C859.004 561.68 857.875 564.824 858.004 568.045C858.133 571.265 859.508 574.309 861.84 576.534C864.172 578.758 867.278 579.989 870.501 579.966H920.499C923.814 579.966 926.994 578.649 929.338 576.304C931.683 573.96 933 570.78 933 567.465C932.974 564.595 931.948 561.824 930.098 559.629C928.248 557.435 925.69 555.954 922.866 555.444Z" fill="white"/>
<path d="M175.866 173.444C176.008 172.598 176.094 171.745 176.124 170.888C176.136 166.503 174.691 162.238 172.017 158.763C169.342 155.287 165.589 152.799 161.347 151.688C157.105 150.577 152.614 150.906 148.579 152.624C144.545 154.342 141.195 157.352 139.056 161.18C137.779 160.692 136.429 160.419 135.063 160.373C133.409 160.373 131.772 160.698 130.244 161.331C128.716 161.963 127.327 162.89 126.158 164.06C124.988 165.229 124.061 166.617 123.428 168.145C122.795 169.673 122.469 171.31 122.469 172.964C122.469 173.036 122.508 173.096 122.511 173.165C119.296 173.399 116.299 174.873 114.151 177.276C112.004 179.68 110.875 182.824 111.004 186.045C111.133 189.265 112.508 192.309 114.84 194.534C117.172 196.758 120.278 197.989 123.501 197.966H173.499C176.814 197.966 179.994 196.649 182.338 194.304C184.683 191.96 186 188.78 186 185.465C185.974 182.595 184.948 179.824 183.098 177.629C181.248 175.435 178.69 173.954 175.866 173.444Z" fill="white"/>
<path d="M1339.06 290.784C1339.15 290.21 1339.21 289.631 1339.23 289.05C1339.24 286.077 1338.26 283.184 1336.45 280.827C1334.63 278.471 1332.09 276.783 1329.21 276.03C1326.34 275.276 1323.29 275.5 1320.55 276.665C1317.82 277.83 1315.55 279.871 1314.1 282.467C1313.23 282.136 1312.31 281.951 1311.39 281.92C1310.27 281.919 1309.16 282.14 1308.12 282.569C1307.08 282.998 1306.14 283.627 1305.35 284.42C1304.56 285.213 1303.93 286.154 1303.5 287.19C1303.07 288.226 1302.85 289.337 1302.85 290.458C1302.85 290.507 1302.87 290.548 1302.88 290.595C1300.7 290.753 1298.66 291.753 1297.21 293.383C1295.75 295.013 1294.98 297.145 1295.07 299.329C1295.16 301.513 1296.09 303.577 1297.67 305.086C1299.25 306.595 1301.36 307.429 1303.55 307.414H1337.45C1339.7 307.414 1341.86 306.52 1343.45 304.931C1345.04 303.341 1345.93 301.184 1345.93 298.936C1345.91 296.99 1345.22 295.11 1343.96 293.622C1342.71 292.134 1340.97 291.13 1339.06 290.784Z" fill="white"/>
<path d="M649.666 298.276C649.898 296.896 650.039 295.503 650.087 294.104C650.107 286.947 647.749 279.986 643.384 274.314C639.019 268.642 632.893 264.58 625.969 262.767C619.045 260.953 611.715 261.491 605.13 264.295C598.544 267.099 593.077 272.011 589.586 278.259C587.501 277.462 585.299 277.017 583.068 276.942C580.369 276.941 577.696 277.473 575.202 278.505C572.709 279.537 570.442 281.051 568.534 282.96C566.625 284.868 565.111 287.134 564.077 289.627C563.044 292.121 562.513 294.794 562.513 297.493C562.513 297.61 562.576 297.708 562.581 297.821C557.335 298.202 552.442 300.609 548.937 304.532C545.432 308.455 543.59 313.587 543.8 318.843C544.01 324.099 546.255 329.068 550.061 332.699C553.868 336.33 558.937 338.339 564.197 338.301H645.803C651.214 338.301 656.404 336.151 660.231 332.325C664.057 328.498 666.207 323.308 666.207 317.897C666.165 313.212 664.49 308.689 661.471 305.107C658.451 301.525 654.276 299.11 649.666 298.276Z" fill="white"/>
<path d="M1323.67 434.276C1323.9 432.896 1324.04 431.503 1324.09 430.104C1324.11 422.947 1321.75 415.986 1317.38 410.314C1313.02 404.642 1306.89 400.58 1299.97 398.767C1293.05 396.953 1285.71 397.491 1279.13 400.295C1272.54 403.099 1267.08 408.011 1263.59 414.259C1261.5 413.462 1259.3 413.017 1257.07 412.942C1254.37 412.941 1251.7 413.473 1249.2 414.505C1246.71 415.537 1244.44 417.051 1242.53 418.96C1240.62 420.868 1239.11 423.134 1238.08 425.627C1237.04 428.121 1236.51 430.794 1236.51 433.493C1236.51 433.61 1236.58 433.708 1236.58 433.821C1231.33 434.202 1226.44 436.609 1222.94 440.532C1219.43 444.455 1217.59 449.587 1217.8 454.843C1218.01 460.099 1220.26 465.068 1224.06 468.699C1227.87 472.33 1232.94 474.339 1238.2 474.301H1319.8C1325.21 474.301 1330.4 472.151 1334.23 468.325C1338.06 464.498 1340.21 459.308 1340.21 453.897C1340.17 449.212 1338.49 444.689 1335.47 441.107C1332.45 437.525 1328.28 435.11 1323.67 434.276Z" fill="white"/>
<path d="M517.666 625.276C517.898 623.896 518.039 622.503 518.087 621.104C518.107 613.947 515.749 606.986 511.384 601.314C507.019 595.642 500.893 591.58 493.969 589.767C487.045 587.953 479.715 588.491 473.13 591.295C466.544 594.099 461.077 599.011 457.586 605.259C455.501 604.462 453.299 604.017 451.068 603.942C448.369 603.941 445.696 604.473 443.202 605.505C440.709 606.537 438.442 608.051 436.534 609.96C434.625 611.868 433.111 614.134 432.077 616.627C431.044 619.121 430.513 621.794 430.513 624.493C430.513 624.61 430.576 624.708 430.581 624.821C425.335 625.202 420.442 627.609 416.937 631.532C413.432 635.455 411.59 640.587 411.8 645.843C412.01 651.099 414.255 656.068 418.061 659.699C421.868 663.33 426.937 665.339 432.197 665.301H513.803C519.214 665.301 524.404 663.151 528.231 659.325C532.057 655.498 534.207 650.308 534.207 644.897C534.165 640.212 532.49 635.689 529.471 632.107C526.451 628.525 522.276 626.11 517.666 625.276Z" fill="white"/>
</g>
<defs>
<filter id="filter0_d_152_175" x="-20" y="-8" width="1537" height="770" filterUnits="userSpaceOnUse" color-interpolation-filters="sRGB">
<feFlood flood-opacity="0" result="BackgroundImageFix"/>
<feColorMatrix in="SourceAlpha" type="matrix" values="0 0 0 0 0 0 0 0 0 0 0 0 0 0 0 0 0 0 127 0" result="hardAlpha"/>
<feOffset dy="12"/>
<feGaussianBlur stdDeviation="10"/>
<feComposite in2="hardAlpha" operator="out"/>
<feColorMatrix type="matrix" values="0 0 0 0 0 0 0 0 0 0 0 0 0 0 0 0 0 0 0.25 0"/>
<feBlend mode="normal" in2="BackgroundImageFix" result="effect1_dropShadow_152_175"/>
<feBlend mode="normal" in="SourceGraphic" in2="effect1_dropShadow_152_175" result="shape"/>
</filter>
<clipPath id="clip0_152_175">
<rect width="1497" height="735" fill="white"/>
</clipPath>
</defs>
</svg>
