<svg width="1567" height="1182" viewBox="0 0 1567 1182" fill="none" xmlns="http://www.w3.org/2000/svg">
<g clip-path="url(#clip0_582_179)">
<rect width="1567" height="1182" fill="white"/>
<g filter="url(#filter0_d_582_179)">
<path d="M4 -9H1571V1156C1571 1211.23 1526.23 1256 1471 1256H104C48.7715 1256 4 1211.23 4 1156V-9Z" fill="#FFB4B4"/>
</g>
<g clip-path="url(#clip1_582_179)">
<path d="M-13.3266 564.611C-13.1391 563.494 -13.0252 562.365 -12.9856 561.233C-12.9695 555.436 -14.8791 549.799 -18.4145 545.205C-21.9498 540.611 -26.9107 537.322 -32.5181 535.854C-38.1256 534.385 -44.0619 534.82 -49.3951 537.091C-54.7283 539.362 -59.1562 543.34 -61.9835 548.4C-63.6716 547.755 -65.4553 547.394 -67.2616 547.334C-69.4476 547.333 -71.6122 547.763 -73.6319 548.599C-75.6516 549.436 -77.4868 550.661 -79.0327 552.207C-80.5786 553.753 -81.8049 555.587 -82.6416 557.607C-83.4782 559.626 -83.9088 561.791 -83.9088 563.977C-83.9088 564.072 -83.8573 564.151 -83.8533 564.243C-88.1024 564.552 -92.0648 566.5 -94.9032 569.677C-97.7416 572.854 -99.2335 577.011 -99.0636 581.267C-98.8937 585.524 -97.0752 589.548 -93.9926 592.489C-90.91 595.43 -86.8048 597.056 -82.5447 597.026H-16.4554C-12.0729 597.026 -7.86983 595.285 -4.77093 592.186C-1.67202 589.087 0.0689323 584.884 0.0689323 580.501C0.0352459 576.707 -1.32127 573.044 -3.76668 570.143C-6.21209 567.243 -9.59309 565.286 -13.3266 564.611Z" fill="white"/>
</g>
<path d="M525.624 25.0141C525.811 23.897 525.925 22.7688 525.965 21.6369C525.981 15.8428 524.074 10.2075 520.544 5.61578C517.014 1.02411 512.06 -2.26384 506.461 -3.7318C500.862 -5.19975 494.934 -4.76455 489.609 -2.49454C484.283 -0.224539 479.862 3.75171 477.039 8.80983C475.353 8.16455 473.572 7.80421 471.768 7.74355C469.586 7.74303 467.424 8.17296 465.407 9.00878C463.391 9.8446 461.558 11.0699 460.015 12.6148C458.471 14.1597 457.246 15.9938 456.411 18.0125C455.576 20.0312 455.146 22.1948 455.146 24.3798C455.146 24.475 455.197 24.5543 455.201 24.6454C450.958 24.9542 447.002 26.9022 444.167 30.0779C441.333 33.2535 439.843 37.408 440.013 41.663C440.183 45.9181 441.998 49.9404 445.077 52.8798C448.155 55.8192 452.254 57.4454 456.508 57.4146H522.5C526.876 57.4146 531.073 55.6744 534.167 52.5768C537.262 49.4792 539 45.2779 539 40.8972C538.966 37.105 537.612 33.4433 535.17 30.5438C532.728 27.6443 529.352 25.6886 525.624 25.0141Z" fill="white"/>
<path d="M1634.13 434.929C1634.57 437.129 1633.92 439.405 1632.4 441.05L1567.58 510.991C1563.69 515.184 1556.69 513.203 1555.58 507.596L1537.02 414.063C1536.58 411.863 1537.22 409.587 1538.75 407.942L1603.57 338.001C1607.45 333.808 1614.45 335.789 1615.57 341.396L1634.13 434.929Z" fill="#50759A"/>
<path d="M963.114 59.4125C963.203 58.944 963.258 58.4709 963.276 57.9962C963.284 55.5665 962.372 53.2033 960.684 51.2777C958.995 49.3522 956.626 47.9734 953.948 47.3578C951.271 46.7422 948.436 46.9247 945.889 47.8766C943.342 48.8286 941.227 50.496 939.877 52.6172C939.071 52.3466 938.219 52.1955 937.356 52.17C936.312 52.1698 935.279 52.3501 934.314 52.7006C933.35 53.0511 932.473 53.565 931.735 54.2128C930.997 54.8607 930.411 55.6298 930.011 56.4764C929.612 57.3229 929.406 58.2302 929.406 59.1465C929.406 59.1864 929.431 59.2197 929.433 59.2579C927.404 59.3874 925.511 60.2043 924.156 61.536C922.8 62.8678 922.088 64.6099 922.169 66.3943C922.25 68.1787 923.118 69.8655 924.591 71.0981C926.063 72.3308 928.023 73.0127 930.058 72.9998H961.619C963.712 72.9998 965.72 72.27 967.199 70.9711C968.679 69.6721 969.511 67.9102 969.511 66.0732C969.495 64.4829 968.847 62.9474 967.679 61.7314C966.511 60.5155 964.897 59.6954 963.114 59.4125Z" fill="white"/>
<path d="M1580.06 28.0731C1580.45 26.0323 1580.68 23.9714 1580.76 21.9034C1580.8 11.3185 1576.87 1.02356 1569.59 -7.36474C1562.31 -15.753 1552.1 -21.7597 1540.55 -24.4414C1529.01 -27.1231 1516.79 -26.3281 1505.81 -22.1811C1494.83 -18.0342 1485.72 -10.7701 1479.9 -1.52968C1476.42 -2.70852 1472.75 -3.3668 1469.03 -3.47762C1464.53 -3.47857 1460.07 -2.69316 1455.92 -1.16624C1451.76 0.360679 1447.98 2.59919 1444.8 5.42145C1441.62 8.24371 1439.09 11.5944 1437.37 15.2822C1435.65 18.97 1434.76 22.9227 1434.76 26.9144C1434.76 27.0882 1434.87 27.2331 1434.88 27.3996C1426.13 27.9636 1417.97 31.5225 1412.13 37.3239C1406.28 43.1254 1403.21 50.7149 1403.56 58.4883C1403.91 66.2617 1407.66 73.6099 1414 78.9797C1420.35 84.3496 1428.8 87.3203 1437.57 87.2641H1573.62C1582.64 87.2641 1591.3 84.085 1597.68 78.4261C1604.06 72.7672 1607.64 65.0921 1607.64 57.0893C1607.57 50.1614 1604.78 43.4721 1599.74 38.1751C1594.71 32.878 1587.75 29.3053 1580.06 28.0731Z" fill="white"/>
</g>
<defs>
<filter id="filter0_d_582_179" x="-16" y="-17" width="1607" height="1305" filterUnits="userSpaceOnUse" color-interpolation-filters="sRGB">
<feFlood flood-opacity="0" result="BackgroundImageFix"/>
<feColorMatrix in="SourceAlpha" type="matrix" values="0 0 0 0 0 0 0 0 0 0 0 0 0 0 0 0 0 0 127 0" result="hardAlpha"/>
<feOffset dy="12"/>
<feGaussianBlur stdDeviation="10"/>
<feComposite in2="hardAlpha" operator="out"/>
<feColorMatrix type="matrix" values="0 0 0 0 0 0 0 0 0 0 0 0 0 0 0 0 0 0 0.25 0"/>
<feBlend mode="normal" in2="BackgroundImageFix" result="effect1_dropShadow_582_179"/>
<feBlend mode="normal" in="SourceGraphic" in2="effect1_dropShadow_582_179" result="shape"/>
</filter>
<clipPath id="clip0_582_179">
<rect width="1567" height="1182" fill="white"/>
</clipPath>
<clipPath id="clip1_582_179">
<rect width="115" height="115" fill="white" transform="translate(-107 562)"/>
</clipPath>
</defs>
</svg>
