<svg width="22" height="28" viewBox="0 0 22 28" fill="none" xmlns="http://www.w3.org/2000/svg">
<path d="M17.875 0H4.125C1.7875 0 0 1.82 0 4.2V12.6H11.825L8.6625 9.38C8.1125 8.82 8.1125 7.98 8.6625 7.42C9.2125 6.86 10.0375 6.86 10.5875 7.42L16.0875 13.02C16.6375 13.58 16.6375 14.42 16.0875 14.98L10.5875 20.58C10.0375 21.14 9.2125 21.14 8.6625 20.58C8.1125 20.02 8.1125 19.18 8.6625 18.62L11.825 15.4H0V23.8C0 26.18 1.7875 28 4.125 28H17.875C20.2125 28 22 26.18 22 23.8V4.2C22 1.82 20.2125 0 17.875 0Z" fill="white"/>
</svg>
