<svg width="450" height="1024" viewBox="0 0 450 1024" fill="none" xmlns="http://www.w3.org/2000/svg">
<g clip-path="url(#clip0_581_50)">
<rect width="450" height="1024" fill="white"/>
<path d="M285.776 911.735C282.986 910.546 281.279 907.696 281.547 904.675L284.111 875.844C284.38 872.823 286.563 870.319 289.518 869.641L317.731 863.169C320.687 862.491 323.743 863.794 325.301 866.396L340.174 891.227C341.732 893.829 341.438 897.138 339.445 899.424L320.425 921.242C318.432 923.528 315.194 924.271 312.404 923.082L285.776 911.735Z" fill="#00AF5B"/>
<path d="M522.131 597.929C522.567 600.129 521.923 602.405 520.399 604.05L455.581 673.991C451.695 678.184 444.694 676.203 443.581 670.596L425.016 577.063C424.58 574.863 425.224 572.587 426.748 570.942L491.566 501.001C495.452 496.808 502.453 498.789 503.566 504.396L522.131 597.929Z" fill="#50759A"/>
<g clip-path="url(#clip1_581_50)">
<path d="M36.6734 564.611C36.8609 563.494 36.9748 562.365 37.0144 561.233C37.0305 555.436 35.1209 549.799 31.5855 545.205C28.0502 540.611 23.0893 537.322 17.4819 535.854C11.8744 534.385 5.93807 534.82 0.604905 537.091C-4.72826 539.362 -9.15615 543.34 -11.9835 548.4C-13.6716 547.755 -15.4553 547.394 -17.2616 547.334C-19.4476 547.333 -21.6122 547.763 -23.6319 548.599C-25.6516 549.436 -27.4868 550.661 -29.0327 552.207C-30.5786 553.753 -31.8049 555.587 -32.6416 557.607C-33.4782 559.626 -33.9088 561.791 -33.9088 563.977C-33.9088 564.072 -33.8573 564.151 -33.8533 564.243C-38.1024 564.552 -42.0648 566.5 -44.9032 569.677C-47.7416 572.854 -49.2335 577.011 -49.0636 581.267C-48.8937 585.524 -47.0752 589.548 -43.9926 592.489C-40.91 595.43 -36.8048 597.056 -32.5447 597.026H33.5446C37.9271 597.026 42.1302 595.285 45.2291 592.186C48.328 589.087 50.0689 584.884 50.0689 580.501C50.0352 576.707 48.6787 573.044 46.2333 570.143C43.7879 567.243 40.4069 565.286 36.6734 564.611Z" fill="white"/>
</g>
<path d="M358.624 72.0141C358.811 70.897 358.925 69.7688 358.965 68.6369C358.981 62.8428 357.074 57.2075 353.544 52.6158C350.014 48.0241 345.06 44.7362 339.461 43.2682C333.862 41.8003 327.934 42.2354 322.609 44.5055C317.283 46.7755 312.862 50.7517 310.039 55.8098C308.353 55.1645 306.572 54.8042 304.768 54.7436C302.586 54.743 300.424 55.173 298.407 56.0088C296.391 56.8446 294.558 58.0699 293.015 59.6148C291.471 61.1597 290.246 62.9938 289.411 65.0125C288.576 67.0312 288.146 69.1948 288.146 71.3798C288.146 71.475 288.197 71.5543 288.201 71.6454C283.958 71.9542 280.002 73.9022 277.167 77.0779C274.333 80.2535 272.843 84.408 273.013 88.663C273.183 92.9181 274.998 96.9404 278.077 99.8798C281.155 102.819 285.254 104.445 289.508 104.415H355.5C359.876 104.415 364.073 102.674 367.167 99.5768C370.262 96.4792 372 92.2779 372 87.8972C371.966 84.105 370.612 80.4433 368.17 77.5438C365.728 74.6443 362.352 72.6886 358.624 72.0141Z" fill="#FFB4B4"/>
<path d="M54.1745 969.757C59.3069 969.871 62.5741 975.288 60.2811 979.881L14.8 1070.99C12.3352 1075.92 5.39296 1076.2 2.54289 1071.48L-53.7773 978.097C-56.6273 973.371 -53.1438 967.36 -47.6268 967.483L54.1745 969.757Z" fill="#FFC736"/>
<path d="M282.602 51.4708C282.627 51.065 282.642 50.6551 282.647 50.2439C282.649 48.1389 282.396 46.0916 281.928 44.4234C281.46 42.7553 280.803 41.5608 280.061 41.0275C279.319 40.4942 278.533 40.6523 277.827 41.477C277.121 42.3017 276.535 43.7462 276.16 45.5838C275.937 45.3494 275.701 45.2185 275.462 45.1965C275.172 45.1963 274.886 45.3525 274.618 45.6561C274.351 45.9598 274.108 46.4049 273.903 46.9662C273.699 47.5274 273.536 48.1938 273.426 48.9272C273.315 49.6605 273.258 50.4466 273.258 51.2404C273.258 51.275 273.265 51.3038 273.265 51.3369C272.703 51.4491 272.178 52.1568 271.802 53.3105C271.427 54.4642 271.229 55.9735 271.252 57.5194C271.274 59.0652 271.515 60.5265 271.923 61.5944C272.331 62.6623 272.875 63.2531 273.439 63.2419H282.187C282.768 63.2419 283.324 62.6097 283.734 61.4843C284.145 60.359 284.375 58.8327 284.375 57.2412C284.371 55.8634 284.191 54.5332 283.867 53.4798C283.544 52.4264 283.096 51.7159 282.602 51.4708Z" fill="white"/>
<path d="M453.621 24.3206C453.728 22.5527 453.793 20.7672 453.816 18.9757C453.825 9.80563 452.735 0.886866 450.718 -6.38016C448.7 -13.6472 445.869 -18.8509 442.669 -21.1741C439.469 -23.4974 436.082 -22.8086 433.038 -19.216C429.995 -15.6234 427.468 -9.33034 425.855 -1.32509C424.891 -2.34635 423.874 -2.91663 422.843 -3.01263C421.595 -3.01346 420.36 -2.33304 419.208 -1.01022C418.055 0.312589 417.008 2.25188 416.126 4.69688C415.243 7.14188 414.544 10.0447 414.066 13.2396C413.589 16.4344 413.343 19.8587 413.343 23.3169C413.343 23.4674 413.372 23.5929 413.375 23.7372C410.95 24.2258 408.689 27.3089 407.069 32.3349C405.449 37.3609 404.598 43.9359 404.695 50.6702C404.792 57.4045 405.83 63.7704 407.589 68.4225C409.348 73.0746 411.69 75.6482 414.122 75.5995H451.836C454.336 75.5995 456.735 72.8453 458.503 67.9429C460.272 63.0404 461.265 56.3913 461.265 49.4582C461.246 43.4563 460.472 37.6612 459.076 33.0723C457.681 28.4833 455.751 25.3882 453.621 24.3206Z" fill="white"/>
<path d="M398.22 61.5825C398.314 60.8929 398.371 60.1963 398.391 59.4975C398.399 55.9203 397.438 52.4411 395.657 49.6062C393.877 46.7713 391.378 44.7414 388.555 43.8351C385.731 42.9288 382.741 43.1975 380.055 44.599C377.369 46.0004 375.139 48.4553 373.716 51.5782C372.865 51.1798 371.967 50.9573 371.057 50.9199C369.957 50.9195 368.866 51.185 367.849 51.701C366.832 52.217 365.908 52.9735 365.129 53.9273C364.351 54.8811 363.733 56.0135 363.312 57.2598C362.891 58.5061 362.674 59.8419 362.674 61.191C362.674 61.2497 362.7 61.2986 362.702 61.3549C360.562 61.5455 358.566 62.7483 357.137 64.7089C355.707 66.6695 354.956 69.2344 355.042 71.8615C355.127 74.4885 356.043 76.9719 357.596 78.7866C359.148 80.6014 361.215 81.6054 363.361 81.5863H396.644C398.851 81.5863 400.968 80.5119 402.528 78.5995C404.089 76.6871 404.966 74.0933 404.966 71.3887C404.949 69.0474 404.265 66.7867 403.034 64.9965C401.802 63.2064 400.1 61.999 398.22 61.5825Z" fill="#FFB4B4"/>
<path d="M101.25 251.5H111V253H101.25V251.5ZM101.25 265H111V266.5H101.25V265ZM93 258.25H102.75V259.75H93V258.25ZM95.25 255.25C94.6567 255.25 94.0766 255.074 93.5833 254.744C93.0899 254.415 92.7054 253.946 92.4784 253.398C92.2513 252.85 92.1919 252.247 92.3076 251.665C92.4234 251.083 92.7091 250.548 93.1287 250.129C93.5482 249.709 94.0828 249.423 94.6647 249.308C95.2467 249.192 95.8499 249.251 96.3981 249.478C96.9462 249.705 97.4148 250.09 97.7444 250.583C98.0741 251.077 98.25 251.657 98.25 252.25C98.25 253.046 97.9339 253.809 97.3713 254.371C96.8087 254.934 96.0457 255.25 95.25 255.25ZM95.25 250.75C94.9533 250.75 94.6633 250.838 94.4166 251.003C94.17 251.168 93.9777 251.402 93.8642 251.676C93.7507 251.95 93.7209 252.252 93.7788 252.543C93.8367 252.834 93.9796 253.101 94.1893 253.311C94.3991 253.52 94.6664 253.663 94.9574 253.721C95.2483 253.779 95.5499 253.749 95.824 253.636C96.0981 253.522 96.3324 253.33 96.4972 253.083C96.662 252.837 96.75 252.547 96.75 252.25C96.75 251.852 96.592 251.471 96.3107 251.189C96.0294 250.908 95.6478 250.75 95.25 250.75ZM95.25 268.75C94.6567 268.75 94.0766 268.574 93.5833 268.244C93.0899 267.915 92.7054 267.446 92.4784 266.898C92.2513 266.35 92.1919 265.747 92.3076 265.165C92.4234 264.583 92.7091 264.048 93.1287 263.629C93.5482 263.209 94.0828 262.923 94.6647 262.808C95.2467 262.692 95.8499 262.751 96.3981 262.978C96.9462 263.205 97.4148 263.59 97.7444 264.083C98.0741 264.577 98.25 265.157 98.25 265.75C98.25 266.546 97.9339 267.309 97.3713 267.871C96.8087 268.434 96.0457 268.75 95.25 268.75ZM95.25 264.25C94.9533 264.25 94.6633 264.338 94.4166 264.503C94.17 264.668 93.9777 264.902 93.8642 265.176C93.7507 265.45 93.7209 265.752 93.7788 266.043C93.8367 266.334 93.9796 266.601 94.1893 266.811C94.3991 267.02 94.6664 267.163 94.9574 267.221C95.2483 267.279 95.5499 267.249 95.824 267.136C96.0981 267.022 96.3324 266.83 96.4972 266.583C96.662 266.337 96.75 266.047 96.75 265.75C96.75 265.352 96.592 264.971 96.3107 264.689C96.0294 264.408 95.6478 264.25 95.25 264.25ZM108.75 262C108.157 262 107.577 261.824 107.083 261.494C106.59 261.165 106.205 260.696 105.978 260.148C105.751 259.6 105.692 258.997 105.808 258.415C105.923 257.833 106.209 257.298 106.629 256.879C107.048 256.459 107.583 256.173 108.165 256.058C108.747 255.942 109.35 256.001 109.898 256.228C110.446 256.455 110.915 256.84 111.244 257.333C111.574 257.827 111.75 258.407 111.75 259C111.75 259.796 111.434 260.559 110.871 261.121C110.309 261.684 109.546 262 108.75 262ZM108.75 257.5C108.453 257.5 108.163 257.588 107.917 257.753C107.67 257.918 107.478 258.152 107.364 258.426C107.251 258.7 107.221 259.002 107.279 259.293C107.337 259.584 107.48 259.851 107.689 260.061C107.899 260.27 108.166 260.413 108.457 260.471C108.748 260.529 109.05 260.499 109.324 260.386C109.598 260.272 109.832 260.08 109.997 259.833C110.162 259.587 110.25 259.297 110.25 259C110.25 258.602 110.092 258.221 109.811 257.939C109.529 257.658 109.148 257.5 108.75 257.5Z" fill="white"/>
<path d="M151.226 938.977C151.352 936.889 151.429 934.78 151.455 932.664C151.466 921.835 150.179 911.302 147.797 902.72C145.414 894.138 142.071 887.993 138.292 885.249C134.513 882.506 130.513 883.319 126.919 887.562C123.324 891.805 120.34 899.236 118.435 908.69C117.297 907.484 116.095 906.811 114.878 906.697C113.405 906.696 111.946 907.5 110.585 909.062C109.224 910.624 107.987 912.914 106.945 915.802C105.904 918.689 105.077 922.117 104.513 925.89C103.949 929.663 103.659 933.707 103.659 937.791C103.659 937.969 103.694 938.117 103.697 938.288C100.833 938.865 98.1629 942.506 96.25 948.441C94.3372 954.376 93.3318 962.141 93.4463 970.094C93.5608 978.047 94.7863 985.565 96.8637 991.059C98.9411 996.553 101.708 999.592 104.579 999.534H149.117C152.07 999.534 154.903 996.282 156.991 990.492C159.08 984.703 160.253 976.85 160.253 968.663C160.23 961.575 159.316 954.731 157.668 949.312C156.02 943.892 153.742 940.237 151.226 938.977Z" fill="#FFB4B4"/>
</g>
<defs>
<clipPath id="clip0_581_50">
<rect width="450" height="1024" fill="white"/>
</clipPath>
<clipPath id="clip1_581_50">
<rect width="115" height="115" fill="white" transform="translate(-57 562)"/>
</clipPath>
</defs>
</svg>
