<svg width="20" height="20" viewBox="0 0 24 24" fill="none" xmlns="http://www.w3.org/2000/svg">
<path d="M11.25 4.5H21V6H11.25V4.5ZM11.25 18H21V19.5H11.25V18ZM3 11.25H12.75V12.75H3V11.25ZM5.25 8.25C4.65666 8.25 4.07664 8.07405 3.58329 7.74441C3.08994 7.41477 2.70543 6.94623 2.47836 6.39805C2.2513 5.84987 2.19189 5.24667 2.30765 4.66473C2.4234 4.08279 2.70912 3.54824 3.12868 3.12868C3.54824 2.70912 4.08279 2.4234 4.66473 2.30765C5.24667 2.19189 5.84987 2.2513 6.39805 2.47836C6.94623 2.70543 7.41477 3.08994 7.74441 3.58329C8.07405 4.07664 8.25 4.65666 8.25 5.25C8.25 6.04565 7.93393 6.80871 7.37132 7.37132C6.80871 7.93393 6.04565 8.25 5.25 8.25ZM5.25 3.75C4.95333 3.75 4.66332 3.83797 4.41665 4.0028C4.16997 4.16762 3.97771 4.40189 3.86418 4.67598C3.75065 4.95007 3.72095 5.25167 3.77882 5.54264C3.8367 5.83361 3.97956 6.10088 4.18934 6.31066C4.39912 6.52044 4.66639 6.6633 4.95737 6.72118C5.24834 6.77906 5.54994 6.74935 5.82403 6.63582C6.09812 6.52229 6.33238 6.33003 6.49721 6.08336C6.66203 5.83668 6.75 5.54667 6.75 5.25C6.75 4.85218 6.59197 4.47065 6.31066 4.18934C6.02936 3.90804 5.64783 3.75 5.25 3.75ZM5.25 21.75C4.65666 21.75 4.07664 21.5741 3.58329 21.2444C3.08994 20.9148 2.70543 20.4462 2.47836 19.8981C2.2513 19.3499 2.19189 18.7467 2.30765 18.1647C2.4234 17.5828 2.70912 17.0482 3.12868 16.6287C3.54824 16.2091 4.08279 15.9234 4.66473 15.8076C5.24667 15.6919 5.84987 15.7513 6.39805 15.9784C6.94623 16.2054 7.41477 16.5899 7.74441 17.0833C8.07405 17.5766 8.25 18.1567 8.25 18.75C8.25 19.5457 7.93393 20.3087 7.37132 20.8713C6.80871 21.4339 6.04565 21.75 5.25 21.75ZM5.25 17.25C4.95333 17.25 4.66332 17.338 4.41665 17.5028C4.16997 17.6676 3.97771 17.9019 3.86418 18.176C3.75065 18.4501 3.72095 18.7517 3.77882 19.0426C3.8367 19.3336 3.97956 19.6009 4.18934 19.8107C4.39912 20.0204 4.66639 20.1633 4.95737 20.2212C5.24834 20.2791 5.54994 20.2494 5.82403 20.1358C6.09812 20.0223 6.33238 19.83 6.49721 19.5834C6.66203 19.3367 6.75 19.0467 6.75 18.75C6.75 18.3522 6.59197 17.9706 6.31066 17.6893C6.02936 17.408 5.64783 17.25 5.25 17.25ZM18.75 15C18.1567 15 17.5766 14.8241 17.0833 14.4944C16.5899 14.1648 16.2054 13.6962 15.9784 13.1481C15.7513 12.5999 15.6919 11.9967 15.8076 11.4147C15.9234 10.8328 16.2091 10.2982 16.6287 9.87868C17.0482 9.45912 17.5828 9.1734 18.1647 9.05765C18.7467 8.94189 19.3499 9.0013 19.8981 9.22836C20.4462 9.45543 20.9148 9.83994 21.2444 10.3333C21.5741 10.8266 21.75 11.4067 21.75 12C21.75 12.7957 21.4339 13.5587 20.8713 14.1213C20.3087 14.6839 19.5457 15 18.75 15ZM18.75 10.5C18.4533 10.5 18.1633 10.588 17.9166 10.7528C17.67 10.9176 17.4777 11.1519 17.3642 11.426C17.2507 11.7001 17.2209 12.0017 17.2788 12.2926C17.3367 12.5836 17.4796 12.8509 17.6893 13.0607C17.8991 13.2704 18.1664 13.4133 18.4574 13.4712C18.7483 13.5291 19.0499 13.4994 19.324 13.3858C19.5981 13.2723 19.8324 13.08 19.9972 12.8334C20.162 12.5867 20.25 12.2967 20.25 12C20.25 11.6022 20.092 11.2206 19.8107 10.9393C19.5294 10.658 19.1478 10.5 18.75 10.5Z" fill="white"/>
</svg>
