<svg width="50" height="53" viewBox="0 0 50 53" fill="none" xmlns="http://www.w3.org/2000/svg">
<path d="M25.9407 25.1581C29.2205 24.6258 31.4479 21.5356 30.9157 18.2557C30.3835 14.9759 27.2932 12.7485 24.0134 13.2807C20.7335 13.8129 18.5062 16.9032 19.0384 20.1831C19.5706 23.4629 22.6609 25.6903 25.9407 25.1581Z" fill="#FFB4B4"/>
<path d="M11.8292 33.56C11.8292 37.1128 14.7164 40 18.2691 40H31.6849C35.2377 40 38.1248 37.1128 38.1248 33.56C38.1248 30.0073 35.2377 27.1201 31.6849 27.1201H18.2691C14.7164 27.1201 11.8292 30.0073 11.8292 33.56Z" fill="#FFB4B4"/>
<mask id="path-3-inside-1_375_181" fill="white">
<path d="M50 25C50 18.3696 47.3661 12.0107 42.6777 7.32233C37.9893 2.63392 31.6304 5.00582e-07 25 0C18.3696 -5.00582e-07 12.0107 2.63392 7.32233 7.32233C2.63392 12.0107 1.00116e-06 18.3696 0 25H5.04554C5.04554 19.7077 7.14788 14.6322 10.8901 10.8901C14.6323 7.14787 19.7077 5.04554 25 5.04554C30.2923 5.04554 35.3677 7.14788 39.1099 10.8901C42.8521 14.6323 44.9545 19.7077 44.9545 25H50Z"/>
</mask>
<path d="M50 25C50 18.3696 47.3661 12.0107 42.6777 7.32233C37.9893 2.63392 31.6304 5.00582e-07 25 0C18.3696 -5.00582e-07 12.0107 2.63392 7.32233 7.32233C2.63392 12.0107 1.00116e-06 18.3696 0 25H5.04554C5.04554 19.7077 7.14788 14.6322 10.8901 10.8901C14.6323 7.14787 19.7077 5.04554 25 5.04554C30.2923 5.04554 35.3677 7.14788 39.1099 10.8901C42.8521 14.6323 44.9545 19.7077 44.9545 25H50Z" stroke="#FFB4B4" stroke-width="48" mask="url(#path-3-inside-1_375_181)"/>
<mask id="path-4-inside-2_375_181" fill="white">
<path d="M50 27.0732C50 33.7037 47.3661 40.0625 42.6777 44.7509C37.9893 49.4393 31.6304 52.0732 25 52.0732C18.3696 52.0732 12.0107 49.4393 7.32233 44.7509C2.63392 40.0625 1.00116e-06 33.7037 0 27.0732H5.04554C5.04554 32.3655 7.14788 37.441 10.8901 41.1832C14.6323 44.9254 19.7077 47.0277 25 47.0277C30.2923 47.0277 35.3677 44.9254 39.1099 41.1832C42.8521 37.441 44.9545 32.3655 44.9545 27.0732H50Z"/>
</mask>
<path d="M50 27.0732C50 33.7037 47.3661 40.0625 42.6777 44.7509C37.9893 49.4393 31.6304 52.0732 25 52.0732C18.3696 52.0732 12.0107 49.4393 7.32233 44.7509C2.63392 40.0625 1.00116e-06 33.7037 0 27.0732H5.04554C5.04554 32.3655 7.14788 37.441 10.8901 41.1832C14.6323 44.9254 19.7077 47.0277 25 47.0277C30.2923 47.0277 35.3677 44.9254 39.1099 41.1832C42.8521 37.441 44.9545 32.3655 44.9545 27.0732H50Z" stroke="#FFB4B4" stroke-width="48" mask="url(#path-4-inside-2_375_181)"/>
</svg>
