<svg width="1440" height="1024" viewBox="0 0 1440 1024" fill="none" xmlns="http://www.w3.org/2000/svg">
<g clip-path="url(#clip0_57_7)">
<rect width="1440" height="1024" fill="white"/>
<path d="M292.906 512.079C166.679 530.805 179 542.938 0 414V0H1443V457.87C1388.26 394.152 1304.21 464.975 1275.77 525.424C1247.33 585.873 1144.59 462.54 1104.53 470.88C1027.42 443.525 900.748 519.419 826.646 542.938C726.358 574.768 660.928 470.88 517.718 470.88C431.598 470.88 421.084 493.064 292.906 512.079Z" fill="#FFB4B4"/>
<path d="M654.091 396.59C654.214 395.861 654.288 395.125 654.314 394.386C654.324 390.606 653.079 386.929 650.773 383.933C648.468 380.937 645.232 378.792 641.575 377.834C637.918 376.877 634.047 377.161 630.568 378.642C627.09 380.123 624.203 382.717 622.359 386.017C621.258 385.596 620.094 385.361 618.916 385.322C617.491 385.321 616.079 385.602 614.762 386.147C613.445 386.692 612.248 387.492 611.24 388.5C610.231 389.508 609.432 390.704 608.886 392.021C608.34 393.339 608.06 394.75 608.06 396.176C608.06 396.238 608.093 396.29 608.096 396.349C605.325 396.551 602.74 397.822 600.889 399.894C599.038 401.965 598.065 404.676 598.176 407.452C598.287 410.228 599.473 412.853 601.483 414.771C603.494 416.688 606.171 417.749 608.949 417.729H652.051C654.909 417.729 657.65 416.594 659.671 414.573C661.692 412.552 662.828 409.811 662.828 406.953C662.806 404.478 661.921 402.089 660.326 400.198C658.731 398.306 656.526 397.03 654.091 396.59Z" fill="white"/>
<path d="M255.302 213.08C255.493 211.943 255.609 210.795 255.649 209.642C255.666 203.745 253.723 198.009 250.126 193.336C246.529 188.662 241.482 185.316 235.777 183.822C230.072 182.328 224.033 182.771 218.607 185.081C213.181 187.391 208.676 191.439 205.799 196.587C204.082 195.93 202.267 195.563 200.429 195.502C198.205 195.501 196.003 195.939 193.948 196.789C191.893 197.64 190.026 198.887 188.454 200.46C186.881 202.032 185.633 203.899 184.782 205.953C183.931 208.008 183.493 210.21 183.493 212.434C183.493 212.531 183.545 212.612 183.549 212.705C179.226 213.019 175.195 215.002 172.307 218.234C169.419 221.466 167.901 225.695 168.074 230.025C168.247 234.356 170.097 238.45 173.233 241.442C176.37 244.434 180.546 246.089 184.881 246.058H252.119C256.578 246.058 260.854 244.286 264.007 241.134C267.16 237.981 268.931 233.705 268.931 229.246C268.897 225.386 267.517 221.659 265.029 218.708C262.541 215.757 259.101 213.766 255.302 213.08Z" fill="white"/>
<path d="M34.3024 341.08C34.4931 339.943 34.609 338.795 34.6494 337.642C34.6657 331.745 32.7229 326.009 29.126 321.336C25.5292 316.662 20.482 313.316 14.7771 311.822C9.07215 310.328 3.03254 310.771 -2.39337 313.081C-7.81929 315.391 -12.3242 319.439 -15.2007 324.587C-16.9182 323.93 -18.7329 323.563 -20.5706 323.502C-22.7946 323.501 -24.9969 323.939 -27.0517 324.789C-29.1065 325.64 -30.9737 326.887 -32.5464 328.46C-34.1192 330.032 -35.3668 331.899 -36.218 333.953C-37.0692 336.008 -37.5073 338.21 -37.5073 340.434C-37.5073 340.531 -37.4549 340.612 -37.4509 340.705C-41.7738 341.019 -45.8052 343.002 -48.6929 346.234C-51.5807 349.466 -53.0985 353.695 -52.9257 358.025C-52.7528 362.356 -50.9027 366.45 -47.7665 369.442C-44.6303 372.434 -40.4537 374.089 -36.1195 374.058H31.1192C35.5779 374.058 39.8541 372.286 43.0069 369.134C46.1597 365.981 47.9309 361.705 47.9309 357.246C47.8966 353.386 46.5165 349.659 44.0286 346.708C41.5406 343.757 38.1008 341.766 34.3024 341.08Z" fill="white"/>
<path d="M88.2369 50.4683C88.3755 49.6423 88.4597 48.8081 88.489 47.971C88.5008 43.6866 87.0894 39.5197 84.4763 36.1244C81.8632 32.7291 78.1965 30.2979 74.0519 29.2124C69.9073 28.1269 65.5195 28.4487 61.5776 30.1273C57.6357 31.8058 54.3629 34.746 52.2731 38.4862C51.0254 38.009 49.707 37.7426 48.3719 37.6977C46.7562 37.6974 45.1563 38.0153 43.6634 38.6333C42.1706 39.2513 40.8141 40.1574 39.6715 41.2998C38.5289 42.4421 37.6225 43.7983 37.0041 45.291C36.3857 46.7837 36.0674 48.3836 36.0674 49.9993C36.0674 50.0696 36.1056 50.1283 36.1085 50.1957C32.9679 50.424 30.0391 51.8644 27.9412 54.2127C25.8432 56.5609 24.7405 59.6328 24.8661 62.7792C24.9917 65.9256 26.3358 68.8998 28.6142 71.0733C30.8926 73.2469 33.9269 74.4493 37.0757 74.4265H85.9243C89.1636 74.4265 92.2702 73.1398 94.5607 70.8493C96.8512 68.5588 98.138 65.4522 98.138 62.2129C98.1131 59.4088 97.1104 56.7012 95.3029 54.5572C93.4955 52.4131 90.9965 50.967 88.2369 50.4683Z" fill="white"/>
<path d="M563.396 135.002C563.463 134.604 563.504 134.202 563.518 133.798C563.524 131.731 562.843 129.721 561.583 128.084C560.322 126.446 558.553 125.273 556.554 124.75C554.555 124.226 552.439 124.381 550.537 125.191C548.636 126.001 547.057 127.419 546.049 129.223C545.447 128.993 544.811 128.864 544.167 128.843C543.388 128.842 542.616 128.996 541.896 129.294C541.176 129.592 540.522 130.029 539.971 130.58C539.42 131.131 538.982 131.785 538.684 132.505C538.386 133.225 538.232 133.997 538.232 134.776C538.232 134.81 538.251 134.838 538.252 134.871C536.737 134.981 535.325 135.676 534.313 136.809C533.301 137.941 532.769 139.423 532.829 140.941C532.89 142.458 533.538 143.893 534.637 144.941C535.736 145.99 537.2 146.57 538.719 146.559H562.281C563.843 146.559 565.342 145.938 566.447 144.833C567.552 143.728 568.172 142.23 568.172 140.668C568.16 139.315 567.677 138.009 566.805 136.975C565.933 135.941 564.728 135.243 563.396 135.002Z" fill="white"/>
</g>
<defs>
<clipPath id="clip0_57_7">
<rect width="1440" height="1024" fill="white"/>
</clipPath>
</defs>
</svg>
